<mxfile host="app.diagrams.net" modified="2023-04-18T20:33:24.283Z" agent="Mozilla/5.0 (Macintosh; Intel Mac OS X 10_15_7) AppleWebKit/537.36 (KHTML, like Gecko) Chrome/112.0.0.0 Safari/537.36" etag="_UJoCuEQBy6a8Qwiwksv" version="21.1.8" type="device">
  <diagram name="Страница 1" id="1fZUuVgu8hJn7vZOcelm">
    <mxGraphModel dx="3932" dy="3014" grid="1" gridSize="10" guides="1" tooltips="1" connect="1" arrows="1" fold="1" page="1" pageScale="1" pageWidth="827" pageHeight="1169" math="0" shadow="0">
      <root>
        <mxCell id="0" />
        <mxCell id="1" parent="0" />
        <mxCell id="aLUWIl0fzYMnbTUpbonb-100" value="" style="group" parent="1" vertex="1" connectable="0">
          <mxGeometry x="770" y="-140" width="130" height="290" as="geometry" />
        </mxCell>
        <mxCell id="aLUWIl0fzYMnbTUpbonb-8" value="Аренда" style="rounded=0;whiteSpace=wrap;html=1;" parent="aLUWIl0fzYMnbTUpbonb-100" vertex="1">
          <mxGeometry y="250" width="130" height="40" as="geometry" />
        </mxCell>
        <mxCell id="aLUWIl0fzYMnbTUpbonb-87" value="Дата начала" style="ellipse;whiteSpace=wrap;html=1;fontStyle=0" parent="aLUWIl0fzYMnbTUpbonb-100" vertex="1">
          <mxGeometry x="10" y="150" width="120" height="40" as="geometry" />
        </mxCell>
        <mxCell id="aLUWIl0fzYMnbTUpbonb-93" style="edgeStyle=orthogonalEdgeStyle;shape=connector;rounded=0;orthogonalLoop=1;jettySize=auto;html=1;exitX=0;exitY=0;exitDx=0;exitDy=0;entryX=0;entryY=0.5;entryDx=0;entryDy=0;labelBackgroundColor=default;strokeColor=default;fontFamily=Helvetica;fontSize=11;fontColor=default;endArrow=none;endFill=0;" parent="aLUWIl0fzYMnbTUpbonb-100" source="aLUWIl0fzYMnbTUpbonb-8" target="aLUWIl0fzYMnbTUpbonb-87" edge="1">
          <mxGeometry relative="1" as="geometry">
            <Array as="points">
              <mxPoint y="170" />
            </Array>
          </mxGeometry>
        </mxCell>
        <mxCell id="aLUWIl0fzYMnbTUpbonb-88" value="Дата окончания" style="ellipse;whiteSpace=wrap;html=1;fontStyle=0" parent="aLUWIl0fzYMnbTUpbonb-100" vertex="1">
          <mxGeometry x="10" y="200" width="120" height="40" as="geometry" />
        </mxCell>
        <mxCell id="aLUWIl0fzYMnbTUpbonb-92" style="edgeStyle=orthogonalEdgeStyle;shape=connector;rounded=0;orthogonalLoop=1;jettySize=auto;html=1;exitX=0;exitY=0;exitDx=0;exitDy=0;entryX=0;entryY=0.5;entryDx=0;entryDy=0;labelBackgroundColor=default;strokeColor=default;fontFamily=Helvetica;fontSize=11;fontColor=default;endArrow=none;endFill=0;" parent="aLUWIl0fzYMnbTUpbonb-100" source="aLUWIl0fzYMnbTUpbonb-8" target="aLUWIl0fzYMnbTUpbonb-88" edge="1">
          <mxGeometry relative="1" as="geometry">
            <Array as="points">
              <mxPoint y="220" />
            </Array>
          </mxGeometry>
        </mxCell>
        <mxCell id="aLUWIl0fzYMnbTUpbonb-95" value="Плата за старт" style="ellipse;whiteSpace=wrap;html=1;fontStyle=0" parent="aLUWIl0fzYMnbTUpbonb-100" vertex="1">
          <mxGeometry x="10" y="97.5" width="120" height="40" as="geometry" />
        </mxCell>
        <mxCell id="aLUWIl0fzYMnbTUpbonb-97" style="edgeStyle=orthogonalEdgeStyle;shape=connector;rounded=0;orthogonalLoop=1;jettySize=auto;html=1;exitX=0;exitY=0;exitDx=0;exitDy=0;entryX=0;entryY=0.5;entryDx=0;entryDy=0;labelBackgroundColor=default;strokeColor=default;fontFamily=Helvetica;fontSize=11;fontColor=default;endArrow=none;endFill=0;" parent="aLUWIl0fzYMnbTUpbonb-100" source="aLUWIl0fzYMnbTUpbonb-8" target="aLUWIl0fzYMnbTUpbonb-95" edge="1">
          <mxGeometry relative="1" as="geometry">
            <Array as="points">
              <mxPoint y="118" />
            </Array>
          </mxGeometry>
        </mxCell>
        <mxCell id="aLUWIl0fzYMnbTUpbonb-96" value="Плата за минуту" style="ellipse;whiteSpace=wrap;html=1;fontStyle=0" parent="aLUWIl0fzYMnbTUpbonb-100" vertex="1">
          <mxGeometry x="10" y="47.5" width="120" height="40" as="geometry" />
        </mxCell>
        <mxCell id="aLUWIl0fzYMnbTUpbonb-98" style="edgeStyle=orthogonalEdgeStyle;shape=connector;rounded=0;orthogonalLoop=1;jettySize=auto;html=1;exitX=0;exitY=0;exitDx=0;exitDy=0;entryX=0;entryY=0.5;entryDx=0;entryDy=0;labelBackgroundColor=default;strokeColor=default;fontFamily=Helvetica;fontSize=11;fontColor=default;endArrow=none;endFill=0;" parent="aLUWIl0fzYMnbTUpbonb-100" source="aLUWIl0fzYMnbTUpbonb-8" target="aLUWIl0fzYMnbTUpbonb-96" edge="1">
          <mxGeometry relative="1" as="geometry">
            <Array as="points">
              <mxPoint y="67" />
            </Array>
          </mxGeometry>
        </mxCell>
        <mxCell id="aLUWIl0fzYMnbTUpbonb-101" value="" style="group" parent="1" vertex="1" connectable="0">
          <mxGeometry x="-224" y="-270" width="130" height="190" as="geometry" />
        </mxCell>
        <mxCell id="aLUWIl0fzYMnbTUpbonb-4" value="Зона ограничения скорости" style="rounded=0;whiteSpace=wrap;html=1;" parent="aLUWIl0fzYMnbTUpbonb-101" vertex="1">
          <mxGeometry x="-13" y="150" width="130" height="40" as="geometry" />
        </mxCell>
        <mxCell id="aLUWIl0fzYMnbTUpbonb-81" value="Гео-координаты" style="ellipse;whiteSpace=wrap;html=1;" parent="aLUWIl0fzYMnbTUpbonb-101" vertex="1">
          <mxGeometry x="-3" y="50" width="120" height="40" as="geometry" />
        </mxCell>
        <mxCell id="aLUWIl0fzYMnbTUpbonb-84" style="edgeStyle=orthogonalEdgeStyle;shape=connector;rounded=0;orthogonalLoop=1;jettySize=auto;html=1;exitX=0;exitY=0;exitDx=0;exitDy=0;entryX=0;entryY=0.5;entryDx=0;entryDy=0;labelBackgroundColor=default;strokeColor=default;fontFamily=Helvetica;fontSize=11;fontColor=default;endArrow=none;endFill=0;" parent="aLUWIl0fzYMnbTUpbonb-101" source="aLUWIl0fzYMnbTUpbonb-4" target="aLUWIl0fzYMnbTUpbonb-81" edge="1">
          <mxGeometry relative="1" as="geometry">
            <Array as="points">
              <mxPoint x="-13" y="70" />
            </Array>
          </mxGeometry>
        </mxCell>
        <mxCell id="aLUWIl0fzYMnbTUpbonb-82" value="Максимальная скорость" style="ellipse;whiteSpace=wrap;html=1;" parent="aLUWIl0fzYMnbTUpbonb-101" vertex="1">
          <mxGeometry x="-3" y="100" width="120" height="40" as="geometry" />
        </mxCell>
        <mxCell id="aLUWIl0fzYMnbTUpbonb-83" style="edgeStyle=orthogonalEdgeStyle;shape=connector;rounded=0;orthogonalLoop=1;jettySize=auto;html=1;exitX=0;exitY=0;exitDx=0;exitDy=0;entryX=0;entryY=0.5;entryDx=0;entryDy=0;labelBackgroundColor=default;strokeColor=default;fontFamily=Helvetica;fontSize=11;fontColor=default;endArrow=none;endFill=0;" parent="aLUWIl0fzYMnbTUpbonb-101" source="aLUWIl0fzYMnbTUpbonb-4" target="aLUWIl0fzYMnbTUpbonb-82" edge="1">
          <mxGeometry relative="1" as="geometry">
            <Array as="points">
              <mxPoint x="-13" y="120" />
            </Array>
          </mxGeometry>
        </mxCell>
        <mxCell id="aLUWIl0fzYMnbTUpbonb-103" value="" style="group" parent="1" vertex="1" connectable="0">
          <mxGeometry x="380" y="-210" width="130" height="290" as="geometry" />
        </mxCell>
        <mxCell id="qkEfz8yO1FouXV4fTvmz-25" style="edgeStyle=orthogonalEdgeStyle;rounded=0;orthogonalLoop=1;jettySize=auto;html=1;exitX=0;exitY=0;exitDx=0;exitDy=0;entryX=0;entryY=0.5;entryDx=0;entryDy=0;endArrow=none;endFill=0;" parent="aLUWIl0fzYMnbTUpbonb-103" source="aLUWIl0fzYMnbTUpbonb-2" target="qkEfz8yO1FouXV4fTvmz-24" edge="1">
          <mxGeometry relative="1" as="geometry">
            <Array as="points">
              <mxPoint y="120" />
            </Array>
          </mxGeometry>
        </mxCell>
        <mxCell id="aLUWIl0fzYMnbTUpbonb-2" value="Электросамокат" style="rounded=0;whiteSpace=wrap;html=1;" parent="aLUWIl0fzYMnbTUpbonb-103" vertex="1">
          <mxGeometry y="250" width="130" height="40" as="geometry" />
        </mxCell>
        <mxCell id="aLUWIl0fzYMnbTUpbonb-68" value="Номер" style="ellipse;whiteSpace=wrap;html=1;fontStyle=4" parent="aLUWIl0fzYMnbTUpbonb-103" vertex="1">
          <mxGeometry x="10" y="200" width="120" height="40" as="geometry" />
        </mxCell>
        <mxCell id="aLUWIl0fzYMnbTUpbonb-73" style="edgeStyle=orthogonalEdgeStyle;shape=connector;rounded=0;orthogonalLoop=1;jettySize=auto;html=1;exitX=0;exitY=0;exitDx=0;exitDy=0;entryX=0;entryY=0.5;entryDx=0;entryDy=0;labelBackgroundColor=default;strokeColor=default;fontFamily=Helvetica;fontSize=11;fontColor=default;endArrow=none;endFill=0;" parent="aLUWIl0fzYMnbTUpbonb-103" source="aLUWIl0fzYMnbTUpbonb-2" target="aLUWIl0fzYMnbTUpbonb-68" edge="1">
          <mxGeometry relative="1" as="geometry">
            <Array as="points">
              <mxPoint y="220" />
            </Array>
          </mxGeometry>
        </mxCell>
        <mxCell id="aLUWIl0fzYMnbTUpbonb-70" value="Ссылка на фотографию" style="ellipse;whiteSpace=wrap;html=1;" parent="aLUWIl0fzYMnbTUpbonb-103" vertex="1">
          <mxGeometry x="10" y="150" width="120" height="40" as="geometry" />
        </mxCell>
        <mxCell id="aLUWIl0fzYMnbTUpbonb-74" style="edgeStyle=orthogonalEdgeStyle;shape=connector;rounded=0;orthogonalLoop=1;jettySize=auto;html=1;exitX=0;exitY=0;exitDx=0;exitDy=0;entryX=0;entryY=0.5;entryDx=0;entryDy=0;labelBackgroundColor=default;strokeColor=default;fontFamily=Helvetica;fontSize=11;fontColor=default;endArrow=none;endFill=0;" parent="aLUWIl0fzYMnbTUpbonb-103" source="aLUWIl0fzYMnbTUpbonb-2" target="aLUWIl0fzYMnbTUpbonb-70" edge="1">
          <mxGeometry relative="1" as="geometry">
            <Array as="points">
              <mxPoint y="170" />
            </Array>
          </mxGeometry>
        </mxCell>
        <mxCell id="qkEfz8yO1FouXV4fTvmz-24" value="Статус" style="ellipse;whiteSpace=wrap;html=1;" parent="aLUWIl0fzYMnbTUpbonb-103" vertex="1">
          <mxGeometry x="10" y="100" width="120" height="40" as="geometry" />
        </mxCell>
        <mxCell id="aLUWIl0fzYMnbTUpbonb-134" value="" style="group" parent="1" vertex="1" connectable="0">
          <mxGeometry x="570" y="-240" width="130" height="240" as="geometry" />
        </mxCell>
        <mxCell id="qkEfz8yO1FouXV4fTvmz-13" style="edgeStyle=orthogonalEdgeStyle;rounded=0;orthogonalLoop=1;jettySize=auto;html=1;exitX=0;exitY=0;exitDx=0;exitDy=0;entryX=0;entryY=0.5;entryDx=0;entryDy=0;endArrow=none;endFill=0;" parent="aLUWIl0fzYMnbTUpbonb-134" source="aLUWIl0fzYMnbTUpbonb-7" target="qkEfz8yO1FouXV4fTvmz-12" edge="1">
          <mxGeometry relative="1" as="geometry">
            <Array as="points">
              <mxPoint y="20" />
            </Array>
          </mxGeometry>
        </mxCell>
        <mxCell id="aLUWIl0fzYMnbTUpbonb-7" value="Запись в истории перемещений" style="rounded=0;whiteSpace=wrap;html=1;" parent="aLUWIl0fzYMnbTUpbonb-134" vertex="1">
          <mxGeometry y="200" width="130" height="40" as="geometry" />
        </mxCell>
        <mxCell id="aLUWIl0fzYMnbTUpbonb-127" value="Геолокация" style="ellipse;whiteSpace=wrap;html=1;" parent="aLUWIl0fzYMnbTUpbonb-134" vertex="1">
          <mxGeometry x="10" y="100" width="120" height="40" as="geometry" />
        </mxCell>
        <mxCell id="aLUWIl0fzYMnbTUpbonb-131" style="edgeStyle=orthogonalEdgeStyle;shape=connector;rounded=0;orthogonalLoop=1;jettySize=auto;html=1;exitX=0;exitY=0;exitDx=0;exitDy=0;entryX=0;entryY=0.5;entryDx=0;entryDy=0;labelBackgroundColor=default;strokeColor=default;fontFamily=Helvetica;fontSize=11;fontColor=default;endArrow=none;endFill=0;" parent="aLUWIl0fzYMnbTUpbonb-134" source="aLUWIl0fzYMnbTUpbonb-7" target="aLUWIl0fzYMnbTUpbonb-127" edge="1">
          <mxGeometry relative="1" as="geometry">
            <Array as="points">
              <mxPoint y="120" />
            </Array>
          </mxGeometry>
        </mxCell>
        <mxCell id="aLUWIl0fzYMnbTUpbonb-128" value="Уровень заряда" style="ellipse;whiteSpace=wrap;html=1;" parent="aLUWIl0fzYMnbTUpbonb-134" vertex="1">
          <mxGeometry x="10" y="150" width="120" height="40" as="geometry" />
        </mxCell>
        <mxCell id="aLUWIl0fzYMnbTUpbonb-130" style="edgeStyle=orthogonalEdgeStyle;shape=connector;rounded=0;orthogonalLoop=1;jettySize=auto;html=1;exitX=0;exitY=0;exitDx=0;exitDy=0;entryX=0;entryY=0.5;entryDx=0;entryDy=0;labelBackgroundColor=default;strokeColor=default;fontFamily=Helvetica;fontSize=11;fontColor=default;endArrow=none;endFill=0;" parent="aLUWIl0fzYMnbTUpbonb-134" source="aLUWIl0fzYMnbTUpbonb-7" target="aLUWIl0fzYMnbTUpbonb-128" edge="1">
          <mxGeometry relative="1" as="geometry">
            <Array as="points">
              <mxPoint y="170" />
            </Array>
          </mxGeometry>
        </mxCell>
        <mxCell id="aLUWIl0fzYMnbTUpbonb-129" value="Отладочная информация" style="ellipse;whiteSpace=wrap;html=1;" parent="aLUWIl0fzYMnbTUpbonb-134" vertex="1">
          <mxGeometry x="10" y="50" width="120" height="40" as="geometry" />
        </mxCell>
        <mxCell id="aLUWIl0fzYMnbTUpbonb-132" style="edgeStyle=orthogonalEdgeStyle;shape=connector;rounded=0;orthogonalLoop=1;jettySize=auto;html=1;exitX=0;exitY=0;exitDx=0;exitDy=0;entryX=0;entryY=0.5;entryDx=0;entryDy=0;labelBackgroundColor=default;strokeColor=default;fontFamily=Helvetica;fontSize=11;fontColor=default;endArrow=none;endFill=0;" parent="aLUWIl0fzYMnbTUpbonb-134" source="aLUWIl0fzYMnbTUpbonb-7" target="aLUWIl0fzYMnbTUpbonb-129" edge="1">
          <mxGeometry relative="1" as="geometry">
            <Array as="points">
              <mxPoint y="70" />
            </Array>
          </mxGeometry>
        </mxCell>
        <mxCell id="qkEfz8yO1FouXV4fTvmz-12" value="Дата создания" style="ellipse;whiteSpace=wrap;html=1;" parent="aLUWIl0fzYMnbTUpbonb-134" vertex="1">
          <mxGeometry x="10" width="120" height="40" as="geometry" />
        </mxCell>
        <mxCell id="aLUWIl0fzYMnbTUpbonb-135" value="Имеет" style="shape=rhombus;double=1;perimeter=rhombusPerimeter;whiteSpace=wrap;html=1;align=center;fontFamily=Helvetica;fontSize=12;fontColor=default;" parent="1" vertex="1">
          <mxGeometry x="570" y="100" width="130" height="60" as="geometry" />
        </mxCell>
        <mxCell id="aLUWIl0fzYMnbTUpbonb-137" value="" style="endArrow=none;html=1;rounded=0;dashed=1;dashPattern=1 2;labelBackgroundColor=default;strokeColor=default;fontFamily=Helvetica;fontSize=11;fontColor=default;shape=connector;exitX=0.75;exitY=1;exitDx=0;exitDy=0;entryX=0;entryY=0.5;entryDx=0;entryDy=0;edgeStyle=orthogonalEdgeStyle;" parent="1" source="aLUWIl0fzYMnbTUpbonb-2" target="aLUWIl0fzYMnbTUpbonb-135" edge="1">
          <mxGeometry relative="1" as="geometry">
            <mxPoint x="470" as="sourcePoint" />
            <mxPoint x="630" as="targetPoint" />
          </mxGeometry>
        </mxCell>
        <mxCell id="aLUWIl0fzYMnbTUpbonb-138" value="1" style="resizable=0;html=1;whiteSpace=wrap;align=right;verticalAlign=bottom;fontFamily=Helvetica;fontSize=11;fontColor=default;" parent="aLUWIl0fzYMnbTUpbonb-137" connectable="0" vertex="1">
          <mxGeometry x="1" relative="1" as="geometry">
            <mxPoint x="-80" y="-31" as="offset" />
          </mxGeometry>
        </mxCell>
        <mxCell id="aLUWIl0fzYMnbTUpbonb-141" value="" style="endArrow=none;html=1;rounded=0;labelBackgroundColor=default;strokeColor=default;fontFamily=Helvetica;fontSize=11;fontColor=default;shape=connector;exitX=0;exitY=0.5;exitDx=0;exitDy=0;entryX=1;entryY=0.5;entryDx=0;entryDy=0;" parent="1" source="aLUWIl0fzYMnbTUpbonb-8" target="aLUWIl0fzYMnbTUpbonb-135" edge="1">
          <mxGeometry relative="1" as="geometry">
            <mxPoint x="640" y="120" as="sourcePoint" />
            <mxPoint x="740" y="170" as="targetPoint" />
          </mxGeometry>
        </mxCell>
        <mxCell id="aLUWIl0fzYMnbTUpbonb-143" value="Имеет" style="shape=rhombus;double=1;perimeter=rhombusPerimeter;whiteSpace=wrap;html=1;align=center;fontFamily=Helvetica;fontSize=12;fontColor=default;" parent="1" vertex="1">
          <mxGeometry x="570" y="555" width="130" height="60" as="geometry" />
        </mxCell>
        <mxCell id="aLUWIl0fzYMnbTUpbonb-146" value="" style="endArrow=none;html=1;rounded=0;dashed=1;dashPattern=1 2;labelBackgroundColor=default;strokeColor=default;fontFamily=Helvetica;fontSize=11;fontColor=default;shape=connector;exitX=1;exitY=0.75;exitDx=0;exitDy=0;edgeStyle=orthogonalEdgeStyle;entryX=0;entryY=0.5;entryDx=0;entryDy=0;" parent="1" source="aLUWIl0fzYMnbTUpbonb-1" target="aLUWIl0fzYMnbTUpbonb-143" edge="1">
          <mxGeometry relative="1" as="geometry">
            <mxPoint x="395" y="647.5" as="sourcePoint" />
            <mxPoint x="570" y="597" as="targetPoint" />
          </mxGeometry>
        </mxCell>
        <mxCell id="aLUWIl0fzYMnbTUpbonb-147" value="N" style="resizable=0;html=1;whiteSpace=wrap;align=right;verticalAlign=bottom;fontFamily=Helvetica;fontSize=11;fontColor=default;" parent="aLUWIl0fzYMnbTUpbonb-146" connectable="0" vertex="1">
          <mxGeometry x="1" relative="1" as="geometry">
            <mxPoint x="196" y="-426" as="offset" />
          </mxGeometry>
        </mxCell>
        <mxCell id="aLUWIl0fzYMnbTUpbonb-150" value="" style="endArrow=none;html=1;rounded=0;labelBackgroundColor=default;strokeColor=default;fontFamily=Helvetica;fontSize=11;fontColor=default;shape=connector;exitX=0;exitY=0.75;exitDx=0;exitDy=0;entryX=1;entryY=0.5;entryDx=0;entryDy=0;edgeStyle=orthogonalEdgeStyle;" parent="1" source="aLUWIl0fzYMnbTUpbonb-8" target="aLUWIl0fzYMnbTUpbonb-143" edge="1">
          <mxGeometry relative="1" as="geometry">
            <mxPoint x="540" y="160" as="sourcePoint" />
            <mxPoint x="700" y="160" as="targetPoint" />
          </mxGeometry>
        </mxCell>
        <mxCell id="qkEfz8yO1FouXV4fTvmz-53" value="1" style="resizable=0;html=1;whiteSpace=wrap;align=right;verticalAlign=bottom;fontFamily=Helvetica;fontSize=11;fontColor=default;" parent="aLUWIl0fzYMnbTUpbonb-150" connectable="0" vertex="1">
          <mxGeometry x="1" relative="1" as="geometry">
            <mxPoint x="64" y="-457" as="offset" />
          </mxGeometry>
        </mxCell>
        <mxCell id="aLUWIl0fzYMnbTUpbonb-153" value="Создает" style="shape=rhombus;perimeter=rhombusPerimeter;whiteSpace=wrap;html=1;align=center;fontFamily=Helvetica;fontSize=11;fontColor=default;" parent="1" vertex="1">
          <mxGeometry x="570" y="30" width="130" height="60" as="geometry" />
        </mxCell>
        <mxCell id="aLUWIl0fzYMnbTUpbonb-155" value="" style="endArrow=none;html=1;rounded=0;labelBackgroundColor=default;strokeColor=default;fontFamily=Helvetica;fontSize=11;fontColor=default;shape=connector;exitX=0.5;exitY=1;exitDx=0;exitDy=0;entryX=0.5;entryY=0;entryDx=0;entryDy=0;" parent="1" source="aLUWIl0fzYMnbTUpbonb-7" target="aLUWIl0fzYMnbTUpbonb-153" edge="1">
          <mxGeometry relative="1" as="geometry">
            <mxPoint x="490" y="30" as="sourcePoint" />
            <mxPoint x="650" y="30" as="targetPoint" />
          </mxGeometry>
        </mxCell>
        <mxCell id="aLUWIl0fzYMnbTUpbonb-156" value="1" style="resizable=0;html=1;whiteSpace=wrap;align=right;verticalAlign=bottom;fontFamily=Helvetica;fontSize=11;fontColor=default;" parent="aLUWIl0fzYMnbTUpbonb-155" connectable="0" vertex="1">
          <mxGeometry x="1" relative="1" as="geometry">
            <mxPoint x="-112" y="30" as="offset" />
          </mxGeometry>
        </mxCell>
        <mxCell id="aLUWIl0fzYMnbTUpbonb-159" value="" style="endArrow=none;html=1;rounded=0;dashed=1;dashPattern=1 2;labelBackgroundColor=default;strokeColor=default;fontFamily=Helvetica;fontSize=11;fontColor=default;shape=connector;exitX=1;exitY=0.5;exitDx=0;exitDy=0;entryX=0;entryY=0.5;entryDx=0;entryDy=0;" parent="1" source="aLUWIl0fzYMnbTUpbonb-2" target="aLUWIl0fzYMnbTUpbonb-153" edge="1">
          <mxGeometry relative="1" as="geometry">
            <mxPoint x="490" y="30" as="sourcePoint" />
            <mxPoint x="650" y="30" as="targetPoint" />
          </mxGeometry>
        </mxCell>
        <mxCell id="aLUWIl0fzYMnbTUpbonb-160" value="N" style="resizable=0;html=1;whiteSpace=wrap;align=right;verticalAlign=bottom;fontFamily=Helvetica;fontSize=11;fontColor=default;" parent="aLUWIl0fzYMnbTUpbonb-159" connectable="0" vertex="1">
          <mxGeometry x="1" relative="1" as="geometry">
            <mxPoint x="60" y="-40" as="offset" />
          </mxGeometry>
        </mxCell>
        <mxCell id="aLUWIl0fzYMnbTUpbonb-162" value="" style="group" parent="1" vertex="1" connectable="0">
          <mxGeometry x="-67" y="-220" width="130" height="140" as="geometry" />
        </mxCell>
        <mxCell id="aLUWIl0fzYMnbTUpbonb-3" value="Парковка" style="rounded=0;whiteSpace=wrap;html=1;" parent="aLUWIl0fzYMnbTUpbonb-162" vertex="1">
          <mxGeometry y="100" width="130" height="40" as="geometry" />
        </mxCell>
        <mxCell id="aLUWIl0fzYMnbTUpbonb-76" value="Геолокация" style="ellipse;whiteSpace=wrap;html=1;" parent="aLUWIl0fzYMnbTUpbonb-162" vertex="1">
          <mxGeometry x="10" y="50" width="120" height="40" as="geometry" />
        </mxCell>
        <mxCell id="aLUWIl0fzYMnbTUpbonb-78" style="edgeStyle=orthogonalEdgeStyle;shape=connector;rounded=0;orthogonalLoop=1;jettySize=auto;html=1;exitX=0;exitY=0;exitDx=0;exitDy=0;entryX=0;entryY=0.5;entryDx=0;entryDy=0;labelBackgroundColor=default;strokeColor=default;fontFamily=Helvetica;fontSize=11;fontColor=default;endArrow=none;endFill=0;" parent="aLUWIl0fzYMnbTUpbonb-162" source="aLUWIl0fzYMnbTUpbonb-3" target="aLUWIl0fzYMnbTUpbonb-76" edge="1">
          <mxGeometry relative="1" as="geometry">
            <Array as="points">
              <mxPoint y="70" />
            </Array>
          </mxGeometry>
        </mxCell>
        <mxCell id="aLUWIl0fzYMnbTUpbonb-165" value="" style="group" parent="1" vertex="1" connectable="0">
          <mxGeometry x="770" y="263.75" width="130" height="140" as="geometry" />
        </mxCell>
        <mxCell id="aLUWIl0fzYMnbTUpbonb-59" value="Название" style="ellipse;whiteSpace=wrap;html=1;fontStyle=4" parent="aLUWIl0fzYMnbTUpbonb-165" vertex="1">
          <mxGeometry x="10" y="50" width="120" height="40" as="geometry" />
        </mxCell>
        <mxCell id="aLUWIl0fzYMnbTUpbonb-62" value="Значение" style="ellipse;whiteSpace=wrap;html=1;" parent="aLUWIl0fzYMnbTUpbonb-165" vertex="1">
          <mxGeometry x="10" y="100" width="120" height="40" as="geometry" />
        </mxCell>
        <mxCell id="aLUWIl0fzYMnbTUpbonb-163" style="edgeStyle=orthogonalEdgeStyle;shape=connector;rounded=0;orthogonalLoop=1;jettySize=auto;html=1;exitX=0;exitY=1;exitDx=0;exitDy=0;entryX=0;entryY=0.5;entryDx=0;entryDy=0;labelBackgroundColor=default;strokeColor=default;fontFamily=Helvetica;fontSize=11;fontColor=default;endArrow=none;endFill=0;" parent="aLUWIl0fzYMnbTUpbonb-165" source="aLUWIl0fzYMnbTUpbonb-5" target="aLUWIl0fzYMnbTUpbonb-59" edge="1">
          <mxGeometry relative="1" as="geometry">
            <Array as="points">
              <mxPoint y="70" />
            </Array>
          </mxGeometry>
        </mxCell>
        <mxCell id="aLUWIl0fzYMnbTUpbonb-164" style="edgeStyle=orthogonalEdgeStyle;shape=connector;rounded=0;orthogonalLoop=1;jettySize=auto;html=1;exitX=0;exitY=1;exitDx=0;exitDy=0;entryX=0;entryY=0.5;entryDx=0;entryDy=0;labelBackgroundColor=default;strokeColor=default;fontFamily=Helvetica;fontSize=11;fontColor=default;endArrow=none;endFill=0;" parent="aLUWIl0fzYMnbTUpbonb-165" source="aLUWIl0fzYMnbTUpbonb-5" target="aLUWIl0fzYMnbTUpbonb-62" edge="1">
          <mxGeometry relative="1" as="geometry">
            <Array as="points">
              <mxPoint y="120" />
            </Array>
          </mxGeometry>
        </mxCell>
        <mxCell id="aLUWIl0fzYMnbTUpbonb-5" value="Настройка" style="rounded=0;whiteSpace=wrap;html=1;" parent="aLUWIl0fzYMnbTUpbonb-165" vertex="1">
          <mxGeometry width="130" height="40" as="geometry" />
        </mxCell>
        <mxCell id="aLUWIl0fzYMnbTUpbonb-166" value="Использует" style="shape=rhombus;double=1;perimeter=rhombusPerimeter;whiteSpace=wrap;html=1;align=center;fontFamily=Helvetica;fontSize=12;fontColor=default;" parent="1" vertex="1">
          <mxGeometry x="770" y="178.75" width="130" height="60" as="geometry" />
        </mxCell>
        <mxCell id="aLUWIl0fzYMnbTUpbonb-167" value="" style="endArrow=none;html=1;rounded=0;labelBackgroundColor=default;strokeColor=default;fontFamily=Helvetica;fontSize=11;fontColor=default;shape=connector;exitX=0.5;exitY=1;exitDx=0;exitDy=0;entryX=0.5;entryY=0;entryDx=0;entryDy=0;" parent="1" source="aLUWIl0fzYMnbTUpbonb-8" target="aLUWIl0fzYMnbTUpbonb-166" edge="1">
          <mxGeometry relative="1" as="geometry">
            <mxPoint x="740" y="240" as="sourcePoint" />
            <mxPoint x="900" y="240" as="targetPoint" />
          </mxGeometry>
        </mxCell>
        <mxCell id="aLUWIl0fzYMnbTUpbonb-168" value="N" style="resizable=0;html=1;whiteSpace=wrap;align=right;verticalAlign=bottom;fontFamily=Helvetica;fontSize=11;fontColor=default;" parent="aLUWIl0fzYMnbTUpbonb-167" connectable="0" vertex="1">
          <mxGeometry x="1" relative="1" as="geometry">
            <mxPoint y="-9" as="offset" />
          </mxGeometry>
        </mxCell>
        <mxCell id="aLUWIl0fzYMnbTUpbonb-169" value="" style="endArrow=none;html=1;rounded=0;dashed=1;dashPattern=1 2;labelBackgroundColor=default;strokeColor=default;fontFamily=Helvetica;fontSize=11;fontColor=default;shape=connector;exitX=0.5;exitY=0;exitDx=0;exitDy=0;entryX=0.5;entryY=1;entryDx=0;entryDy=0;" parent="1" source="aLUWIl0fzYMnbTUpbonb-5" target="aLUWIl0fzYMnbTUpbonb-166" edge="1">
          <mxGeometry relative="1" as="geometry">
            <mxPoint x="740" y="240" as="sourcePoint" />
            <mxPoint x="900" y="240" as="targetPoint" />
          </mxGeometry>
        </mxCell>
        <mxCell id="aLUWIl0fzYMnbTUpbonb-170" value="N" style="resizable=0;html=1;whiteSpace=wrap;align=right;verticalAlign=bottom;fontFamily=Helvetica;fontSize=11;fontColor=default;" parent="aLUWIl0fzYMnbTUpbonb-169" connectable="0" vertex="1">
          <mxGeometry x="1" relative="1" as="geometry">
            <mxPoint y="25" as="offset" />
          </mxGeometry>
        </mxCell>
        <mxCell id="aLUWIl0fzYMnbTUpbonb-171" value="Использует" style="shape=rhombus;perimeter=rhombusPerimeter;whiteSpace=wrap;html=1;align=center;fontFamily=Helvetica;fontSize=11;fontColor=default;" parent="1" vertex="1">
          <mxGeometry x="-67" y="-50" width="130" height="60" as="geometry" />
        </mxCell>
        <mxCell id="aLUWIl0fzYMnbTUpbonb-172" value="" style="endArrow=none;html=1;rounded=0;dashed=1;dashPattern=1 2;labelBackgroundColor=default;strokeColor=default;fontFamily=Helvetica;fontSize=11;fontColor=default;shape=connector;exitX=0.5;exitY=1;exitDx=0;exitDy=0;entryX=0.5;entryY=0;entryDx=0;entryDy=0;" parent="1" source="aLUWIl0fzYMnbTUpbonb-3" target="aLUWIl0fzYMnbTUpbonb-171" edge="1">
          <mxGeometry relative="1" as="geometry">
            <mxPoint x="130" y="-20" as="sourcePoint" />
            <mxPoint x="290" y="-20" as="targetPoint" />
          </mxGeometry>
        </mxCell>
        <mxCell id="aLUWIl0fzYMnbTUpbonb-173" value="N" style="resizable=0;html=1;whiteSpace=wrap;align=right;verticalAlign=bottom;fontFamily=Helvetica;fontSize=11;fontColor=default;" parent="aLUWIl0fzYMnbTUpbonb-172" connectable="0" vertex="1">
          <mxGeometry x="1" relative="1" as="geometry">
            <mxPoint x="-10" y="-10" as="offset" />
          </mxGeometry>
        </mxCell>
        <mxCell id="AA1Bn7bmUUII2A3ySsHL-16" value="N" style="resizable=0;html=1;whiteSpace=wrap;align=right;verticalAlign=bottom;fontFamily=Helvetica;fontSize=11;fontColor=default;" parent="aLUWIl0fzYMnbTUpbonb-172" connectable="0" vertex="1">
          <mxGeometry x="1" relative="1" as="geometry">
            <mxPoint x="382" y="140" as="offset" />
          </mxGeometry>
        </mxCell>
        <mxCell id="aLUWIl0fzYMnbTUpbonb-174" value="" style="endArrow=none;html=1;rounded=0;dashed=1;dashPattern=1 2;labelBackgroundColor=default;strokeColor=default;fontFamily=Helvetica;fontSize=11;fontColor=default;shape=connector;exitX=0;exitY=0.5;exitDx=0;exitDy=0;entryX=0.5;entryY=1;entryDx=0;entryDy=0;edgeStyle=orthogonalEdgeStyle;" parent="1" source="aLUWIl0fzYMnbTUpbonb-2" target="aLUWIl0fzYMnbTUpbonb-171" edge="1">
          <mxGeometry relative="1" as="geometry">
            <mxPoint x="260" y="60" as="sourcePoint" />
            <mxPoint x="420" y="130" as="targetPoint" />
            <Array as="points">
              <mxPoint x="350" y="60" />
              <mxPoint x="350" y="30" />
              <mxPoint x="-2" y="30" />
            </Array>
          </mxGeometry>
        </mxCell>
        <mxCell id="aLUWIl0fzYMnbTUpbonb-180" value="Использует" style="shape=rhombus;perimeter=rhombusPerimeter;whiteSpace=wrap;html=1;align=center;fontFamily=Helvetica;fontSize=11;fontColor=default;" parent="1" vertex="1">
          <mxGeometry x="-237" y="-50" width="130" height="60" as="geometry" />
        </mxCell>
        <mxCell id="aLUWIl0fzYMnbTUpbonb-181" value="" style="endArrow=none;html=1;rounded=0;dashed=1;dashPattern=1 2;labelBackgroundColor=default;strokeColor=default;fontFamily=Helvetica;fontSize=11;fontColor=default;shape=connector;entryX=0.5;entryY=1;entryDx=0;entryDy=0;edgeStyle=orthogonalEdgeStyle;exitX=0;exitY=0.75;exitDx=0;exitDy=0;" parent="1" source="aLUWIl0fzYMnbTUpbonb-2" target="aLUWIl0fzYMnbTUpbonb-180" edge="1">
          <mxGeometry relative="1" as="geometry">
            <mxPoint x="390" y="70" as="sourcePoint" />
            <mxPoint x="330" y="-10" as="targetPoint" />
            <Array as="points">
              <mxPoint x="340" y="70" />
              <mxPoint x="340" y="40" />
              <mxPoint x="-172" y="40" />
            </Array>
          </mxGeometry>
        </mxCell>
        <mxCell id="aLUWIl0fzYMnbTUpbonb-183" value="" style="endArrow=none;html=1;rounded=0;dashed=1;dashPattern=1 2;labelBackgroundColor=default;strokeColor=default;fontFamily=Helvetica;fontSize=11;fontColor=default;shape=connector;exitX=0.5;exitY=1;exitDx=0;exitDy=0;entryX=0.5;entryY=0;entryDx=0;entryDy=0;" parent="1" source="aLUWIl0fzYMnbTUpbonb-4" target="aLUWIl0fzYMnbTUpbonb-180" edge="1">
          <mxGeometry relative="1" as="geometry">
            <mxPoint x="8" y="-70" as="sourcePoint" />
            <mxPoint x="8" y="-40" as="targetPoint" />
          </mxGeometry>
        </mxCell>
        <mxCell id="aLUWIl0fzYMnbTUpbonb-184" value="N" style="resizable=0;html=1;whiteSpace=wrap;align=right;verticalAlign=bottom;fontFamily=Helvetica;fontSize=11;fontColor=default;" parent="aLUWIl0fzYMnbTUpbonb-183" connectable="0" vertex="1">
          <mxGeometry x="1" relative="1" as="geometry">
            <mxPoint x="13" y="-13" as="offset" />
          </mxGeometry>
        </mxCell>
        <mxCell id="aLUWIl0fzYMnbTUpbonb-185" value="" style="group" parent="1" vertex="1" connectable="0">
          <mxGeometry x="380" y="233.75" width="130" height="190" as="geometry" />
        </mxCell>
        <mxCell id="aLUWIl0fzYMnbTUpbonb-107" value="Дата окончания" style="ellipse;whiteSpace=wrap;html=1;fontStyle=0" parent="aLUWIl0fzYMnbTUpbonb-185" vertex="1">
          <mxGeometry x="10" y="50" width="120" height="40" as="geometry" />
        </mxCell>
        <mxCell id="aLUWIl0fzYMnbTUpbonb-108" style="edgeStyle=orthogonalEdgeStyle;shape=connector;rounded=0;orthogonalLoop=1;jettySize=auto;html=1;exitX=0;exitY=0;exitDx=0;exitDy=0;entryX=0;entryY=0.5;entryDx=0;entryDy=0;labelBackgroundColor=default;strokeColor=default;fontFamily=Helvetica;fontSize=11;fontColor=default;endArrow=none;endFill=0;" parent="aLUWIl0fzYMnbTUpbonb-185" source="aLUWIl0fzYMnbTUpbonb-9" target="aLUWIl0fzYMnbTUpbonb-107" edge="1">
          <mxGeometry relative="1" as="geometry">
            <Array as="points">
              <mxPoint y="70" />
            </Array>
          </mxGeometry>
        </mxCell>
        <mxCell id="aLUWIl0fzYMnbTUpbonb-106" value="Дата начала" style="ellipse;whiteSpace=wrap;html=1;fontStyle=0" parent="aLUWIl0fzYMnbTUpbonb-185" vertex="1">
          <mxGeometry x="10" y="100" width="120" height="40" as="geometry" />
        </mxCell>
        <mxCell id="aLUWIl0fzYMnbTUpbonb-109" style="edgeStyle=orthogonalEdgeStyle;shape=connector;rounded=0;orthogonalLoop=1;jettySize=auto;html=1;exitX=0;exitY=0;exitDx=0;exitDy=0;entryX=0;entryY=0.5;entryDx=0;entryDy=0;labelBackgroundColor=default;strokeColor=default;fontFamily=Helvetica;fontSize=11;fontColor=default;endArrow=none;endFill=0;" parent="aLUWIl0fzYMnbTUpbonb-185" source="aLUWIl0fzYMnbTUpbonb-9" target="aLUWIl0fzYMnbTUpbonb-106" edge="1">
          <mxGeometry relative="1" as="geometry">
            <Array as="points">
              <mxPoint y="120" />
            </Array>
          </mxGeometry>
        </mxCell>
        <mxCell id="aLUWIl0fzYMnbTUpbonb-9" value="Бронирование" style="rounded=0;whiteSpace=wrap;html=1;" parent="aLUWIl0fzYMnbTUpbonb-185" vertex="1">
          <mxGeometry width="130" height="40" as="geometry" />
        </mxCell>
        <mxCell id="aLUWIl0fzYMnbTUpbonb-186" value="Имеет" style="shape=rhombus;double=1;perimeter=rhombusPerimeter;whiteSpace=wrap;html=1;align=center;fontFamily=Helvetica;fontSize=12;fontColor=default;" parent="1" vertex="1">
          <mxGeometry x="380" y="150" width="130" height="60" as="geometry" />
        </mxCell>
        <mxCell id="aLUWIl0fzYMnbTUpbonb-187" value="" style="endArrow=none;html=1;rounded=0;labelBackgroundColor=default;strokeColor=default;fontFamily=Helvetica;fontSize=11;fontColor=default;shape=connector;exitX=0.5;exitY=0;exitDx=0;exitDy=0;entryX=0.5;entryY=1;entryDx=0;entryDy=0;" parent="1" source="aLUWIl0fzYMnbTUpbonb-9" target="aLUWIl0fzYMnbTUpbonb-186" edge="1">
          <mxGeometry relative="1" as="geometry">
            <mxPoint x="480" y="210" as="sourcePoint" />
            <mxPoint x="640" y="210" as="targetPoint" />
          </mxGeometry>
        </mxCell>
        <mxCell id="aLUWIl0fzYMnbTUpbonb-188" value="1" style="resizable=0;html=1;whiteSpace=wrap;align=right;verticalAlign=bottom;fontFamily=Helvetica;fontSize=11;fontColor=default;" parent="aLUWIl0fzYMnbTUpbonb-187" connectable="0" vertex="1">
          <mxGeometry x="1" relative="1" as="geometry">
            <mxPoint x="12" y="24" as="offset" />
          </mxGeometry>
        </mxCell>
        <mxCell id="aLUWIl0fzYMnbTUpbonb-189" value="" style="endArrow=none;html=1;rounded=0;dashed=1;dashPattern=1 2;labelBackgroundColor=default;strokeColor=default;fontFamily=Helvetica;fontSize=11;fontColor=default;shape=connector;exitX=0.5;exitY=1;exitDx=0;exitDy=0;entryX=0.5;entryY=0;entryDx=0;entryDy=0;" parent="1" source="aLUWIl0fzYMnbTUpbonb-2" target="aLUWIl0fzYMnbTUpbonb-186" edge="1">
          <mxGeometry relative="1" as="geometry">
            <mxPoint x="420" y="130" as="sourcePoint" />
            <mxPoint x="580" y="130" as="targetPoint" />
          </mxGeometry>
        </mxCell>
        <mxCell id="aLUWIl0fzYMnbTUpbonb-190" value="1" style="resizable=0;html=1;whiteSpace=wrap;align=right;verticalAlign=bottom;fontFamily=Helvetica;fontSize=11;fontColor=default;" parent="aLUWIl0fzYMnbTUpbonb-189" connectable="0" vertex="1">
          <mxGeometry x="1" relative="1" as="geometry">
            <mxPoint y="-50" as="offset" />
          </mxGeometry>
        </mxCell>
        <mxCell id="aLUWIl0fzYMnbTUpbonb-191" value="Имеет" style="shape=rhombus;double=1;perimeter=rhombusPerimeter;whiteSpace=wrap;html=1;align=center;fontFamily=Helvetica;fontSize=12;fontColor=default;" parent="1" vertex="1">
          <mxGeometry x="480" y="503" width="130" height="60" as="geometry" />
        </mxCell>
        <mxCell id="aLUWIl0fzYMnbTUpbonb-194" value="" style="endArrow=none;html=1;rounded=0;labelBackgroundColor=default;strokeColor=default;fontFamily=Helvetica;fontSize=11;fontColor=default;shape=connector;exitX=1;exitY=0.5;exitDx=0;exitDy=0;entryX=0.5;entryY=0;entryDx=0;entryDy=0;edgeStyle=orthogonalEdgeStyle;" parent="1" source="aLUWIl0fzYMnbTUpbonb-9" target="aLUWIl0fzYMnbTUpbonb-191" edge="1">
          <mxGeometry relative="1" as="geometry">
            <mxPoint x="440" y="390" as="sourcePoint" />
            <mxPoint x="600" y="390" as="targetPoint" />
          </mxGeometry>
        </mxCell>
        <mxCell id="aLUWIl0fzYMnbTUpbonb-195" value="1" style="resizable=0;html=1;whiteSpace=wrap;align=right;verticalAlign=bottom;fontFamily=Helvetica;fontSize=11;fontColor=default;" parent="aLUWIl0fzYMnbTUpbonb-194" connectable="0" vertex="1">
          <mxGeometry x="1" relative="1" as="geometry">
            <mxPoint x="-362" y="60" as="offset" />
          </mxGeometry>
        </mxCell>
        <mxCell id="VCckQpM2uN1_MtYX1kYH-9" value="1" style="resizable=0;html=1;whiteSpace=wrap;align=right;verticalAlign=bottom;fontFamily=Helvetica;fontSize=11;fontColor=default;" parent="aLUWIl0fzYMnbTUpbonb-194" connectable="0" vertex="1">
          <mxGeometry x="1" relative="1" as="geometry">
            <mxPoint x="-362" y="38" as="offset" />
          </mxGeometry>
        </mxCell>
        <mxCell id="aLUWIl0fzYMnbTUpbonb-196" value="" style="endArrow=none;html=1;rounded=0;dashed=1;dashPattern=1 2;labelBackgroundColor=default;strokeColor=default;fontFamily=Helvetica;fontSize=11;fontColor=default;shape=connector;exitX=1;exitY=0.5;exitDx=0;exitDy=0;edgeStyle=orthogonalEdgeStyle;entryX=0;entryY=0.5;entryDx=0;entryDy=0;" parent="1" source="aLUWIl0fzYMnbTUpbonb-1" target="aLUWIl0fzYMnbTUpbonb-191" edge="1">
          <mxGeometry relative="1" as="geometry">
            <mxPoint x="362.5" y="627.5" as="sourcePoint" />
            <mxPoint x="570" y="523" as="targetPoint" />
            <Array as="points">
              <mxPoint x="470" y="533" />
              <mxPoint x="470" y="533" />
            </Array>
          </mxGeometry>
        </mxCell>
        <mxCell id="aLUWIl0fzYMnbTUpbonb-197" value="N" style="resizable=0;html=1;whiteSpace=wrap;align=right;verticalAlign=bottom;fontFamily=Helvetica;fontSize=11;fontColor=default;" parent="aLUWIl0fzYMnbTUpbonb-196" connectable="0" vertex="1">
          <mxGeometry x="1" relative="1" as="geometry">
            <mxPoint x="47" y="-259" as="offset" />
          </mxGeometry>
        </mxCell>
        <mxCell id="qkEfz8yO1FouXV4fTvmz-45" value="" style="group" parent="1" vertex="1" connectable="0">
          <mxGeometry x="-150" y="265" width="130" height="190" as="geometry" />
        </mxCell>
        <mxCell id="qkEfz8yO1FouXV4fTvmz-38" value="Токен авторизации" style="rounded=0;whiteSpace=wrap;html=1;" parent="qkEfz8yO1FouXV4fTvmz-45" vertex="1">
          <mxGeometry y="150" width="130" height="40" as="geometry" />
        </mxCell>
        <mxCell id="qkEfz8yO1FouXV4fTvmz-39" value="Дата окончания действия" style="ellipse;whiteSpace=wrap;html=1;" parent="qkEfz8yO1FouXV4fTvmz-45" vertex="1">
          <mxGeometry x="10" y="100" width="120" height="40" as="geometry" />
        </mxCell>
        <mxCell id="qkEfz8yO1FouXV4fTvmz-42" style="edgeStyle=orthogonalEdgeStyle;rounded=0;orthogonalLoop=1;jettySize=auto;html=1;exitX=0;exitY=0;exitDx=0;exitDy=0;entryX=0;entryY=0.5;entryDx=0;entryDy=0;endArrow=none;endFill=0;" parent="qkEfz8yO1FouXV4fTvmz-45" source="qkEfz8yO1FouXV4fTvmz-38" target="qkEfz8yO1FouXV4fTvmz-39" edge="1">
          <mxGeometry relative="1" as="geometry">
            <Array as="points">
              <mxPoint y="120" />
            </Array>
          </mxGeometry>
        </mxCell>
        <mxCell id="qkEfz8yO1FouXV4fTvmz-40" value="Хэш" style="ellipse;whiteSpace=wrap;html=1;fontStyle=4" parent="qkEfz8yO1FouXV4fTvmz-45" vertex="1">
          <mxGeometry x="10" y="50" width="120" height="40" as="geometry" />
        </mxCell>
        <mxCell id="qkEfz8yO1FouXV4fTvmz-43" style="edgeStyle=orthogonalEdgeStyle;rounded=0;orthogonalLoop=1;jettySize=auto;html=1;exitX=0;exitY=0;exitDx=0;exitDy=0;entryX=0;entryY=0.5;entryDx=0;entryDy=0;endArrow=none;endFill=0;" parent="qkEfz8yO1FouXV4fTvmz-45" source="qkEfz8yO1FouXV4fTvmz-38" target="qkEfz8yO1FouXV4fTvmz-40" edge="1">
          <mxGeometry relative="1" as="geometry">
            <Array as="points">
              <mxPoint y="70" />
            </Array>
          </mxGeometry>
        </mxCell>
        <mxCell id="qkEfz8yO1FouXV4fTvmz-46" value="Имеет" style="shape=rhombus;double=1;perimeter=rhombusPerimeter;whiteSpace=wrap;html=1;align=center;fontFamily=Helvetica;fontSize=12;fontColor=default;" parent="1" vertex="1">
          <mxGeometry x="-150" y="503" width="130" height="60" as="geometry" />
        </mxCell>
        <mxCell id="qkEfz8yO1FouXV4fTvmz-49" value="" style="endArrow=none;html=1;rounded=0;exitX=0.5;exitY=0;exitDx=0;exitDy=0;entryX=0.5;entryY=1;entryDx=0;entryDy=0;" parent="1" source="qkEfz8yO1FouXV4fTvmz-46" target="qkEfz8yO1FouXV4fTvmz-38" edge="1">
          <mxGeometry relative="1" as="geometry">
            <mxPoint x="40" y="505" as="sourcePoint" />
            <mxPoint x="200" y="505" as="targetPoint" />
          </mxGeometry>
        </mxCell>
        <mxCell id="qkEfz8yO1FouXV4fTvmz-50" value="N" style="resizable=0;html=1;whiteSpace=wrap;align=right;verticalAlign=bottom;" parent="qkEfz8yO1FouXV4fTvmz-49" connectable="0" vertex="1">
          <mxGeometry x="1" relative="1" as="geometry">
            <mxPoint x="-4" y="19" as="offset" />
          </mxGeometry>
        </mxCell>
        <mxCell id="qkEfz8yO1FouXV4fTvmz-51" value="" style="endArrow=none;html=1;rounded=0;exitX=1;exitY=0.5;exitDx=0;exitDy=0;entryX=0;entryY=0.5;entryDx=0;entryDy=0;" parent="1" source="qkEfz8yO1FouXV4fTvmz-46" target="aLUWIl0fzYMnbTUpbonb-1" edge="1">
          <mxGeometry relative="1" as="geometry">
            <mxPoint x="40" y="505" as="sourcePoint" />
            <mxPoint x="200" y="505" as="targetPoint" />
          </mxGeometry>
        </mxCell>
        <mxCell id="qkEfz8yO1FouXV4fTvmz-52" value="1" style="resizable=0;html=1;whiteSpace=wrap;align=right;verticalAlign=bottom;" parent="qkEfz8yO1FouXV4fTvmz-51" connectable="0" vertex="1">
          <mxGeometry x="1" relative="1" as="geometry">
            <mxPoint x="-3" as="offset" />
          </mxGeometry>
        </mxCell>
        <mxCell id="AA1Bn7bmUUII2A3ySsHL-15" value="" style="group" parent="1" vertex="1" connectable="0">
          <mxGeometry x="103" y="-420" width="130" height="340" as="geometry" />
        </mxCell>
        <mxCell id="AA1Bn7bmUUII2A3ySsHL-2" value="Модель" style="rounded=0;whiteSpace=wrap;html=1;" parent="AA1Bn7bmUUII2A3ySsHL-15" vertex="1">
          <mxGeometry y="300" width="130" height="40" as="geometry" />
        </mxCell>
        <mxCell id="AA1Bn7bmUUII2A3ySsHL-3" value="Название" style="ellipse;whiteSpace=wrap;html=1;fontStyle=4" parent="AA1Bn7bmUUII2A3ySsHL-15" vertex="1">
          <mxGeometry x="10" y="250" width="120" height="40" as="geometry" />
        </mxCell>
        <mxCell id="AA1Bn7bmUUII2A3ySsHL-9" style="edgeStyle=orthogonalEdgeStyle;rounded=0;orthogonalLoop=1;jettySize=auto;html=1;exitX=0;exitY=0;exitDx=0;exitDy=0;entryX=0;entryY=0.5;entryDx=0;entryDy=0;endArrow=none;endFill=0;" parent="AA1Bn7bmUUII2A3ySsHL-15" source="AA1Bn7bmUUII2A3ySsHL-2" target="AA1Bn7bmUUII2A3ySsHL-3" edge="1">
          <mxGeometry relative="1" as="geometry">
            <Array as="points">
              <mxPoint y="270" />
            </Array>
          </mxGeometry>
        </mxCell>
        <mxCell id="AA1Bn7bmUUII2A3ySsHL-4" value="Пробег на одном заряде" style="ellipse;whiteSpace=wrap;html=1;" parent="AA1Bn7bmUUII2A3ySsHL-15" vertex="1">
          <mxGeometry x="10" y="200" width="120" height="40" as="geometry" />
        </mxCell>
        <mxCell id="AA1Bn7bmUUII2A3ySsHL-10" style="edgeStyle=orthogonalEdgeStyle;rounded=0;orthogonalLoop=1;jettySize=auto;html=1;exitX=0;exitY=0;exitDx=0;exitDy=0;entryX=0;entryY=0.5;entryDx=0;entryDy=0;endArrow=none;endFill=0;" parent="AA1Bn7bmUUII2A3ySsHL-15" source="AA1Bn7bmUUII2A3ySsHL-2" target="AA1Bn7bmUUII2A3ySsHL-4" edge="1">
          <mxGeometry relative="1" as="geometry">
            <Array as="points">
              <mxPoint y="220" />
            </Array>
          </mxGeometry>
        </mxCell>
        <mxCell id="AA1Bn7bmUUII2A3ySsHL-5" value="Год выпуска" style="ellipse;whiteSpace=wrap;html=1;" parent="AA1Bn7bmUUII2A3ySsHL-15" vertex="1">
          <mxGeometry x="10" y="150" width="120" height="40" as="geometry" />
        </mxCell>
        <mxCell id="AA1Bn7bmUUII2A3ySsHL-11" style="edgeStyle=orthogonalEdgeStyle;rounded=0;orthogonalLoop=1;jettySize=auto;html=1;exitX=0;exitY=0;exitDx=0;exitDy=0;entryX=0;entryY=0.5;entryDx=0;entryDy=0;endArrow=none;endFill=0;" parent="AA1Bn7bmUUII2A3ySsHL-15" source="AA1Bn7bmUUII2A3ySsHL-2" target="AA1Bn7bmUUII2A3ySsHL-5" edge="1">
          <mxGeometry relative="1" as="geometry">
            <Array as="points">
              <mxPoint y="170" />
            </Array>
          </mxGeometry>
        </mxCell>
        <mxCell id="AA1Bn7bmUUII2A3ySsHL-6" value="Масса" style="ellipse;whiteSpace=wrap;html=1;" parent="AA1Bn7bmUUII2A3ySsHL-15" vertex="1">
          <mxGeometry x="10" y="100" width="120" height="40" as="geometry" />
        </mxCell>
        <mxCell id="AA1Bn7bmUUII2A3ySsHL-12" style="edgeStyle=orthogonalEdgeStyle;rounded=0;orthogonalLoop=1;jettySize=auto;html=1;exitX=0;exitY=0;exitDx=0;exitDy=0;entryX=0;entryY=0.5;entryDx=0;entryDy=0;endArrow=none;endFill=0;" parent="AA1Bn7bmUUII2A3ySsHL-15" source="AA1Bn7bmUUII2A3ySsHL-2" target="AA1Bn7bmUUII2A3ySsHL-6" edge="1">
          <mxGeometry relative="1" as="geometry">
            <Array as="points">
              <mxPoint y="120" />
            </Array>
          </mxGeometry>
        </mxCell>
        <mxCell id="AA1Bn7bmUUII2A3ySsHL-7" value="Максимальная скорость" style="ellipse;whiteSpace=wrap;html=1;" parent="AA1Bn7bmUUII2A3ySsHL-15" vertex="1">
          <mxGeometry x="10" y="50" width="120" height="40" as="geometry" />
        </mxCell>
        <mxCell id="AA1Bn7bmUUII2A3ySsHL-13" style="edgeStyle=orthogonalEdgeStyle;rounded=0;orthogonalLoop=1;jettySize=auto;html=1;exitX=0;exitY=0;exitDx=0;exitDy=0;entryX=0;entryY=0.5;entryDx=0;entryDy=0;endArrow=none;endFill=0;" parent="AA1Bn7bmUUII2A3ySsHL-15" source="AA1Bn7bmUUII2A3ySsHL-2" target="AA1Bn7bmUUII2A3ySsHL-7" edge="1">
          <mxGeometry relative="1" as="geometry">
            <Array as="points">
              <mxPoint y="70" />
            </Array>
          </mxGeometry>
        </mxCell>
        <mxCell id="AA1Bn7bmUUII2A3ySsHL-8" value="Максимальная нагрузка" style="ellipse;whiteSpace=wrap;html=1;" parent="AA1Bn7bmUUII2A3ySsHL-15" vertex="1">
          <mxGeometry x="10" width="120" height="40" as="geometry" />
        </mxCell>
        <mxCell id="AA1Bn7bmUUII2A3ySsHL-14" style="edgeStyle=orthogonalEdgeStyle;rounded=0;orthogonalLoop=1;jettySize=auto;html=1;exitX=0;exitY=0;exitDx=0;exitDy=0;entryX=0;entryY=0.5;entryDx=0;entryDy=0;endArrow=none;endFill=0;" parent="AA1Bn7bmUUII2A3ySsHL-15" source="AA1Bn7bmUUII2A3ySsHL-2" target="AA1Bn7bmUUII2A3ySsHL-8" edge="1">
          <mxGeometry relative="1" as="geometry">
            <Array as="points">
              <mxPoint y="20" />
            </Array>
          </mxGeometry>
        </mxCell>
        <mxCell id="AA1Bn7bmUUII2A3ySsHL-19" value="Имеет" style="shape=rhombus;double=1;perimeter=rhombusPerimeter;whiteSpace=wrap;html=1;align=center;fontFamily=Helvetica;fontSize=12;fontColor=default;" parent="1" vertex="1">
          <mxGeometry x="103" y="-50" width="130" height="60" as="geometry" />
        </mxCell>
        <mxCell id="AA1Bn7bmUUII2A3ySsHL-21" value="" style="endArrow=none;html=1;rounded=0;exitX=0;exitY=0.25;exitDx=0;exitDy=0;entryX=0.5;entryY=1;entryDx=0;entryDy=0;edgeStyle=orthogonalEdgeStyle;" parent="1" source="aLUWIl0fzYMnbTUpbonb-2" target="AA1Bn7bmUUII2A3ySsHL-19" edge="1">
          <mxGeometry relative="1" as="geometry">
            <mxPoint x="310" y="10" as="sourcePoint" />
            <mxPoint x="470" y="10" as="targetPoint" />
            <Array as="points">
              <mxPoint x="360" y="50" />
              <mxPoint x="360" y="20" />
              <mxPoint x="168" y="20" />
            </Array>
          </mxGeometry>
        </mxCell>
        <mxCell id="AA1Bn7bmUUII2A3ySsHL-22" value="1" style="resizable=0;html=1;whiteSpace=wrap;align=right;verticalAlign=bottom;" parent="AA1Bn7bmUUII2A3ySsHL-21" connectable="0" vertex="1">
          <mxGeometry x="1" relative="1" as="geometry">
            <mxPoint x="13" y="-72" as="offset" />
          </mxGeometry>
        </mxCell>
        <mxCell id="AA1Bn7bmUUII2A3ySsHL-25" value="" style="endArrow=none;html=1;rounded=0;dashed=1;dashPattern=1 2;exitX=0.5;exitY=1;exitDx=0;exitDy=0;entryX=0.5;entryY=0;entryDx=0;entryDy=0;" parent="1" source="AA1Bn7bmUUII2A3ySsHL-2" target="AA1Bn7bmUUII2A3ySsHL-19" edge="1">
          <mxGeometry relative="1" as="geometry">
            <mxPoint x="123" y="10" as="sourcePoint" />
            <mxPoint x="283" y="10" as="targetPoint" />
          </mxGeometry>
        </mxCell>
        <mxCell id="AA1Bn7bmUUII2A3ySsHL-26" value="N" style="resizable=0;html=1;whiteSpace=wrap;align=right;verticalAlign=bottom;" parent="AA1Bn7bmUUII2A3ySsHL-25" connectable="0" vertex="1">
          <mxGeometry x="1" relative="1" as="geometry">
            <mxPoint x="212" y="100" as="offset" />
          </mxGeometry>
        </mxCell>
        <mxCell id="M4t_EuS_cLKtJ9E-_PKW-1" value="N" style="resizable=0;html=1;whiteSpace=wrap;align=right;verticalAlign=bottom;" parent="AA1Bn7bmUUII2A3ySsHL-25" connectable="0" vertex="1">
          <mxGeometry x="1" relative="1" as="geometry">
            <mxPoint x="212" y="120" as="offset" />
          </mxGeometry>
        </mxCell>
        <mxCell id="M4t_EuS_cLKtJ9E-_PKW-5" style="edgeStyle=orthogonalEdgeStyle;rounded=0;orthogonalLoop=1;jettySize=auto;html=1;exitX=0;exitY=0;exitDx=0;exitDy=0;entryX=0;entryY=0.5;entryDx=0;entryDy=0;endArrow=none;endFill=0;" parent="1" source="M4t_EuS_cLKtJ9E-_PKW-2" target="M4t_EuS_cLKtJ9E-_PKW-4" edge="1">
          <mxGeometry relative="1" as="geometry">
            <Array as="points">
              <mxPoint x="270" y="-320" />
            </Array>
          </mxGeometry>
        </mxCell>
        <mxCell id="M4t_EuS_cLKtJ9E-_PKW-2" value="Производитель" style="rounded=0;whiteSpace=wrap;html=1;" parent="1" vertex="1">
          <mxGeometry x="270" y="-290" width="130" height="40" as="geometry" />
        </mxCell>
        <mxCell id="M4t_EuS_cLKtJ9E-_PKW-3" value="Имеет" style="shape=rhombus;double=1;perimeter=rhombusPerimeter;whiteSpace=wrap;html=1;align=center;fontFamily=Helvetica;fontSize=12;fontColor=default;" parent="1" vertex="1">
          <mxGeometry x="270" y="-220" width="130" height="60" as="geometry" />
        </mxCell>
        <mxCell id="M4t_EuS_cLKtJ9E-_PKW-4" value="Название" style="ellipse;whiteSpace=wrap;html=1;fontStyle=4" parent="1" vertex="1">
          <mxGeometry x="280" y="-340" width="120" height="40" as="geometry" />
        </mxCell>
        <mxCell id="M4t_EuS_cLKtJ9E-_PKW-6" value="" style="endArrow=none;html=1;rounded=0;dashed=1;dashPattern=1 2;exitX=0.5;exitY=1;exitDx=0;exitDy=0;entryX=0.5;entryY=0;entryDx=0;entryDy=0;" parent="1" source="M4t_EuS_cLKtJ9E-_PKW-2" target="M4t_EuS_cLKtJ9E-_PKW-3" edge="1">
          <mxGeometry relative="1" as="geometry">
            <mxPoint x="230" y="-170" as="sourcePoint" />
            <mxPoint x="390" y="-170" as="targetPoint" />
          </mxGeometry>
        </mxCell>
        <mxCell id="M4t_EuS_cLKtJ9E-_PKW-7" value="N" style="resizable=0;html=1;whiteSpace=wrap;align=right;verticalAlign=bottom;" parent="M4t_EuS_cLKtJ9E-_PKW-6" connectable="0" vertex="1">
          <mxGeometry x="1" relative="1" as="geometry">
            <mxPoint x="-85" y="118" as="offset" />
          </mxGeometry>
        </mxCell>
        <mxCell id="M4t_EuS_cLKtJ9E-_PKW-8" value="" style="endArrow=none;html=1;rounded=0;exitX=1;exitY=0.5;exitDx=0;exitDy=0;entryX=0.5;entryY=1;entryDx=0;entryDy=0;edgeStyle=orthogonalEdgeStyle;" parent="1" source="AA1Bn7bmUUII2A3ySsHL-2" target="M4t_EuS_cLKtJ9E-_PKW-3" edge="1">
          <mxGeometry relative="1" as="geometry">
            <mxPoint x="230" y="-170" as="sourcePoint" />
            <mxPoint x="390" y="-170" as="targetPoint" />
          </mxGeometry>
        </mxCell>
        <mxCell id="M4t_EuS_cLKtJ9E-_PKW-9" value="1" style="resizable=0;html=1;whiteSpace=wrap;align=right;verticalAlign=bottom;" parent="M4t_EuS_cLKtJ9E-_PKW-8" connectable="0" vertex="1">
          <mxGeometry x="1" relative="1" as="geometry">
            <mxPoint x="15" y="-70" as="offset" />
          </mxGeometry>
        </mxCell>
        <mxCell id="GRjTQuXQoVH82ISaSq5Q-1" value="Состояние фар" style="ellipse;whiteSpace=wrap;html=1;" parent="1" vertex="1">
          <mxGeometry x="580" y="-290" width="120" height="40" as="geometry" />
        </mxCell>
        <mxCell id="GRjTQuXQoVH82ISaSq5Q-2" value="Состояние замка" style="ellipse;whiteSpace=wrap;html=1;" parent="1" vertex="1">
          <mxGeometry x="580" y="-340" width="120" height="40" as="geometry" />
        </mxCell>
        <mxCell id="GRjTQuXQoVH82ISaSq5Q-3" style="edgeStyle=orthogonalEdgeStyle;rounded=0;orthogonalLoop=1;jettySize=auto;html=1;exitX=0;exitY=0;exitDx=0;exitDy=0;entryX=0;entryY=0.5;entryDx=0;entryDy=0;endArrow=none;endFill=0;" parent="1" source="aLUWIl0fzYMnbTUpbonb-7" target="GRjTQuXQoVH82ISaSq5Q-1" edge="1">
          <mxGeometry relative="1" as="geometry">
            <Array as="points">
              <mxPoint x="570" y="-270" />
            </Array>
          </mxGeometry>
        </mxCell>
        <mxCell id="GRjTQuXQoVH82ISaSq5Q-4" style="edgeStyle=orthogonalEdgeStyle;rounded=0;orthogonalLoop=1;jettySize=auto;html=1;exitX=0;exitY=0;exitDx=0;exitDy=0;entryX=0;entryY=0.5;entryDx=0;entryDy=0;endArrow=none;endFill=0;" parent="1" source="aLUWIl0fzYMnbTUpbonb-7" target="GRjTQuXQoVH82ISaSq5Q-2" edge="1">
          <mxGeometry relative="1" as="geometry">
            <Array as="points">
              <mxPoint x="570" y="-320" />
            </Array>
          </mxGeometry>
        </mxCell>
        <mxCell id="eLCOaKeWCMaCnl8OHLwY-24" value="Создает" style="shape=rhombus;perimeter=rhombusPerimeter;whiteSpace=wrap;html=1;align=center;fontFamily=Helvetica;fontSize=11;fontColor=default;" parent="1" vertex="1">
          <mxGeometry x="40" y="581" width="130" height="60" as="geometry" />
        </mxCell>
        <mxCell id="eLCOaKeWCMaCnl8OHLwY-25" value="" style="endArrow=none;html=1;rounded=0;dashed=1;dashPattern=1 2;entryX=0.5;entryY=0;entryDx=0;entryDy=0;exitX=0.5;exitY=1;exitDx=0;exitDy=0;" parent="1" source="aLUWIl0fzYMnbTUpbonb-1" target="eLCOaKeWCMaCnl8OHLwY-24" edge="1">
          <mxGeometry relative="1" as="geometry">
            <mxPoint x="100" y="510" as="sourcePoint" />
            <mxPoint x="100" y="750" as="targetPoint" />
          </mxGeometry>
        </mxCell>
        <mxCell id="eLCOaKeWCMaCnl8OHLwY-26" value="N" style="resizable=0;html=1;whiteSpace=wrap;align=right;verticalAlign=bottom;" parent="eLCOaKeWCMaCnl8OHLwY-25" connectable="0" vertex="1">
          <mxGeometry x="1" relative="1" as="geometry">
            <mxPoint x="15" y="95" as="offset" />
          </mxGeometry>
        </mxCell>
        <mxCell id="eLCOaKeWCMaCnl8OHLwY-27" value="" style="endArrow=none;html=1;rounded=0;exitX=0.5;exitY=0;exitDx=0;exitDy=0;entryX=0.5;entryY=1;entryDx=0;entryDy=0;" parent="1" source="eLCOaKeWCMaCnl8OHLwY-3" target="eLCOaKeWCMaCnl8OHLwY-24" edge="1">
          <mxGeometry relative="1" as="geometry">
            <mxPoint x="15" y="721.93" as="sourcePoint" />
            <mxPoint x="175" y="721.93" as="targetPoint" />
          </mxGeometry>
        </mxCell>
        <mxCell id="eLCOaKeWCMaCnl8OHLwY-28" value="1" style="resizable=0;html=1;whiteSpace=wrap;align=right;verticalAlign=bottom;" parent="eLCOaKeWCMaCnl8OHLwY-27" connectable="0" vertex="1">
          <mxGeometry x="1" relative="1" as="geometry">
            <mxPoint x="12" y="-69" as="offset" />
          </mxGeometry>
        </mxCell>
        <mxCell id="oelOoVk0ZH6apqkA6Dq0-8" style="edgeStyle=orthogonalEdgeStyle;rounded=0;orthogonalLoop=1;jettySize=auto;html=1;exitX=0;exitY=0;exitDx=0;exitDy=0;entryX=0;entryY=0.5;entryDx=0;entryDy=0;endArrow=none;endFill=0;" parent="1" source="oelOoVk0ZH6apqkA6Dq0-2" target="oelOoVk0ZH6apqkA6Dq0-3" edge="1">
          <mxGeometry relative="1" as="geometry">
            <Array as="points">
              <mxPoint x="210" y="332" />
            </Array>
          </mxGeometry>
        </mxCell>
        <mxCell id="oelOoVk0ZH6apqkA6Dq0-9" style="edgeStyle=orthogonalEdgeStyle;rounded=0;orthogonalLoop=1;jettySize=auto;html=1;exitX=0;exitY=0;exitDx=0;exitDy=0;entryX=0;entryY=0.5;entryDx=0;entryDy=0;endArrow=none;endFill=0;" parent="1" source="oelOoVk0ZH6apqkA6Dq0-2" target="oelOoVk0ZH6apqkA6Dq0-4" edge="1">
          <mxGeometry relative="1" as="geometry">
            <Array as="points">
              <mxPoint x="210" y="284" />
            </Array>
          </mxGeometry>
        </mxCell>
        <mxCell id="oelOoVk0ZH6apqkA6Dq0-10" style="edgeStyle=orthogonalEdgeStyle;rounded=0;orthogonalLoop=1;jettySize=auto;html=1;exitX=0;exitY=0;exitDx=0;exitDy=0;entryX=0;entryY=0.5;entryDx=0;entryDy=0;endArrow=none;endFill=0;" parent="1" source="oelOoVk0ZH6apqkA6Dq0-2" target="oelOoVk0ZH6apqkA6Dq0-5" edge="1">
          <mxGeometry relative="1" as="geometry">
            <Array as="points">
              <mxPoint x="210" y="235" />
            </Array>
          </mxGeometry>
        </mxCell>
        <mxCell id="oelOoVk0ZH6apqkA6Dq0-11" style="edgeStyle=orthogonalEdgeStyle;rounded=0;orthogonalLoop=1;jettySize=auto;html=1;exitX=0;exitY=0;exitDx=0;exitDy=0;entryX=0;entryY=0.5;entryDx=0;entryDy=0;endArrow=none;endFill=0;" parent="1" source="oelOoVk0ZH6apqkA6Dq0-2" target="oelOoVk0ZH6apqkA6Dq0-6" edge="1">
          <mxGeometry relative="1" as="geometry">
            <Array as="points">
              <mxPoint x="210" y="187" />
            </Array>
          </mxGeometry>
        </mxCell>
        <mxCell id="oelOoVk0ZH6apqkA6Dq0-12" style="edgeStyle=orthogonalEdgeStyle;rounded=0;orthogonalLoop=1;jettySize=auto;html=1;exitX=0;exitY=0;exitDx=0;exitDy=0;entryX=0;entryY=0.5;entryDx=0;entryDy=0;endArrow=none;endFill=0;" parent="1" source="oelOoVk0ZH6apqkA6Dq0-2" target="oelOoVk0ZH6apqkA6Dq0-7" edge="1">
          <mxGeometry relative="1" as="geometry">
            <Array as="points">
              <mxPoint x="210" y="140" />
            </Array>
          </mxGeometry>
        </mxCell>
        <mxCell id="oelOoVk0ZH6apqkA6Dq0-2" value="Код авторизации" style="rounded=0;whiteSpace=wrap;html=1;" parent="1" vertex="1">
          <mxGeometry x="210" y="360" width="130" height="40" as="geometry" />
        </mxCell>
        <mxCell id="VCckQpM2uN1_MtYX1kYH-4" style="edgeStyle=orthogonalEdgeStyle;rounded=0;orthogonalLoop=1;jettySize=auto;html=1;exitX=0;exitY=0;exitDx=0;exitDy=0;entryX=0;entryY=0.5;entryDx=0;entryDy=0;endArrow=none;endFill=0;" parent="1" source="aLUWIl0fzYMnbTUpbonb-1" target="VCckQpM2uN1_MtYX1kYH-1" edge="1">
          <mxGeometry relative="1" as="geometry">
            <Array as="points">
              <mxPoint x="40" y="235" />
            </Array>
          </mxGeometry>
        </mxCell>
        <mxCell id="VCckQpM2uN1_MtYX1kYH-5" style="edgeStyle=orthogonalEdgeStyle;rounded=0;orthogonalLoop=1;jettySize=auto;html=1;exitX=0;exitY=0;exitDx=0;exitDy=0;entryX=0;entryY=0.5;entryDx=0;entryDy=0;endArrow=none;endFill=0;" parent="1" source="aLUWIl0fzYMnbTUpbonb-1" target="VCckQpM2uN1_MtYX1kYH-2" edge="1">
          <mxGeometry relative="1" as="geometry">
            <Array as="points">
              <mxPoint x="40" y="185" />
            </Array>
          </mxGeometry>
        </mxCell>
        <mxCell id="VCckQpM2uN1_MtYX1kYH-6" style="edgeStyle=orthogonalEdgeStyle;rounded=0;orthogonalLoop=1;jettySize=auto;html=1;exitX=0;exitY=0;exitDx=0;exitDy=0;entryX=0;entryY=0.5;entryDx=0;entryDy=0;endArrow=none;endFill=0;" parent="1" source="aLUWIl0fzYMnbTUpbonb-1" target="VCckQpM2uN1_MtYX1kYH-3" edge="1">
          <mxGeometry relative="1" as="geometry">
            <Array as="points">
              <mxPoint x="40" y="135" />
            </Array>
          </mxGeometry>
        </mxCell>
        <mxCell id="VCckQpM2uN1_MtYX1kYH-8" style="edgeStyle=orthogonalEdgeStyle;rounded=0;orthogonalLoop=1;jettySize=auto;html=1;exitX=0;exitY=0;exitDx=0;exitDy=0;entryX=0;entryY=0.5;entryDx=0;entryDy=0;endArrow=none;endFill=0;" parent="1" source="aLUWIl0fzYMnbTUpbonb-1" target="VCckQpM2uN1_MtYX1kYH-7" edge="1">
          <mxGeometry relative="1" as="geometry">
            <Array as="points">
              <mxPoint x="40" y="86" />
            </Array>
          </mxGeometry>
        </mxCell>
        <mxCell id="aLUWIl0fzYMnbTUpbonb-1" value="Пользователь" style="rounded=0;whiteSpace=wrap;html=1;" parent="1" vertex="1">
          <mxGeometry x="40" y="513" width="130" height="40" as="geometry" />
        </mxCell>
        <mxCell id="aLUWIl0fzYMnbTUpbonb-10" value="Номер телефона" style="ellipse;whiteSpace=wrap;html=1;fontStyle=4" parent="1" vertex="1">
          <mxGeometry x="50" y="463" width="120" height="40" as="geometry" />
        </mxCell>
        <mxCell id="aLUWIl0fzYMnbTUpbonb-19" style="edgeStyle=orthogonalEdgeStyle;rounded=0;orthogonalLoop=1;jettySize=auto;html=1;exitX=0;exitY=0;exitDx=0;exitDy=0;entryX=0;entryY=0.5;entryDx=0;entryDy=0;endArrow=none;endFill=0;" parent="1" source="aLUWIl0fzYMnbTUpbonb-1" target="aLUWIl0fzYMnbTUpbonb-10" edge="1">
          <mxGeometry relative="1" as="geometry">
            <Array as="points">
              <mxPoint x="40" y="483" />
            </Array>
          </mxGeometry>
        </mxCell>
        <mxCell id="aLUWIl0fzYMnbTUpbonb-11" value="Электронная почта" style="ellipse;whiteSpace=wrap;html=1;" parent="1" vertex="1">
          <mxGeometry x="50" y="413" width="120" height="40" as="geometry" />
        </mxCell>
        <mxCell id="aLUWIl0fzYMnbTUpbonb-20" style="edgeStyle=orthogonalEdgeStyle;shape=connector;rounded=0;orthogonalLoop=1;jettySize=auto;html=1;exitX=0;exitY=0;exitDx=0;exitDy=0;entryX=0;entryY=0.5;entryDx=0;entryDy=0;labelBackgroundColor=default;strokeColor=default;fontFamily=Helvetica;fontSize=11;fontColor=default;endArrow=none;endFill=0;" parent="1" source="aLUWIl0fzYMnbTUpbonb-1" target="aLUWIl0fzYMnbTUpbonb-11" edge="1">
          <mxGeometry relative="1" as="geometry">
            <Array as="points">
              <mxPoint x="40" y="433" />
            </Array>
          </mxGeometry>
        </mxCell>
        <mxCell id="aLUWIl0fzYMnbTUpbonb-12" value="Фамилия" style="ellipse;whiteSpace=wrap;html=1;" parent="1" vertex="1">
          <mxGeometry x="50" y="313" width="120" height="40" as="geometry" />
        </mxCell>
        <mxCell id="aLUWIl0fzYMnbTUpbonb-22" style="edgeStyle=orthogonalEdgeStyle;shape=connector;rounded=0;orthogonalLoop=1;jettySize=auto;html=1;exitX=0;exitY=0;exitDx=0;exitDy=0;entryX=0;entryY=0.5;entryDx=0;entryDy=0;labelBackgroundColor=default;strokeColor=default;fontFamily=Helvetica;fontSize=11;fontColor=default;endArrow=none;endFill=0;" parent="1" source="aLUWIl0fzYMnbTUpbonb-1" target="aLUWIl0fzYMnbTUpbonb-12" edge="1">
          <mxGeometry relative="1" as="geometry">
            <Array as="points">
              <mxPoint x="40" y="333" />
            </Array>
          </mxGeometry>
        </mxCell>
        <mxCell id="aLUWIl0fzYMnbTUpbonb-13" value="Имя" style="ellipse;whiteSpace=wrap;html=1;" parent="1" vertex="1">
          <mxGeometry x="50" y="363" width="120" height="40" as="geometry" />
        </mxCell>
        <mxCell id="aLUWIl0fzYMnbTUpbonb-21" style="edgeStyle=orthogonalEdgeStyle;shape=connector;rounded=0;orthogonalLoop=1;jettySize=auto;html=1;exitX=0;exitY=0;exitDx=0;exitDy=0;entryX=0;entryY=0.5;entryDx=0;entryDy=0;labelBackgroundColor=default;strokeColor=default;fontFamily=Helvetica;fontSize=11;fontColor=default;endArrow=none;endFill=0;" parent="1" source="aLUWIl0fzYMnbTUpbonb-1" target="aLUWIl0fzYMnbTUpbonb-13" edge="1">
          <mxGeometry relative="1" as="geometry">
            <Array as="points">
              <mxPoint x="40" y="383" />
            </Array>
          </mxGeometry>
        </mxCell>
        <mxCell id="aLUWIl0fzYMnbTUpbonb-14" value="Отчество" style="ellipse;whiteSpace=wrap;html=1;" parent="1" vertex="1">
          <mxGeometry x="50" y="263" width="120" height="40" as="geometry" />
        </mxCell>
        <mxCell id="aLUWIl0fzYMnbTUpbonb-23" style="edgeStyle=orthogonalEdgeStyle;shape=connector;rounded=0;orthogonalLoop=1;jettySize=auto;html=1;exitX=0;exitY=0;exitDx=0;exitDy=0;entryX=0;entryY=0.5;entryDx=0;entryDy=0;labelBackgroundColor=default;strokeColor=default;fontFamily=Helvetica;fontSize=11;fontColor=default;endArrow=none;endFill=0;" parent="1" source="aLUWIl0fzYMnbTUpbonb-1" target="aLUWIl0fzYMnbTUpbonb-14" edge="1">
          <mxGeometry relative="1" as="geometry">
            <Array as="points">
              <mxPoint x="40" y="283" />
            </Array>
          </mxGeometry>
        </mxCell>
        <mxCell id="oelOoVk0ZH6apqkA6Dq0-3" value="Значение" style="ellipse;whiteSpace=wrap;html=1;" parent="1" vertex="1">
          <mxGeometry x="220" y="311.75" width="120" height="40" as="geometry" />
        </mxCell>
        <mxCell id="oelOoVk0ZH6apqkA6Dq0-4" value="&lt;u&gt;Подпись&lt;/u&gt;" style="ellipse;whiteSpace=wrap;html=1;" parent="1" vertex="1">
          <mxGeometry x="220" y="264" width="120" height="40" as="geometry" />
        </mxCell>
        <mxCell id="oelOoVk0ZH6apqkA6Dq0-5" value="Телефон" style="ellipse;whiteSpace=wrap;html=1;" parent="1" vertex="1">
          <mxGeometry x="220" y="214.75" width="120" height="40" as="geometry" />
        </mxCell>
        <mxCell id="oelOoVk0ZH6apqkA6Dq0-6" value="Дата отправки" style="ellipse;whiteSpace=wrap;html=1;" parent="1" vertex="1">
          <mxGeometry x="220" y="167" width="120" height="40" as="geometry" />
        </mxCell>
        <mxCell id="oelOoVk0ZH6apqkA6Dq0-7" value="Дата ввода" style="ellipse;whiteSpace=wrap;html=1;" parent="1" vertex="1">
          <mxGeometry x="220" y="120" width="120" height="40" as="geometry" />
        </mxCell>
        <mxCell id="oelOoVk0ZH6apqkA6Dq0-13" value="Получает" style="shape=rhombus;perimeter=rhombusPerimeter;whiteSpace=wrap;html=1;align=center;fontFamily=Helvetica;fontSize=11;fontColor=default;" parent="1" vertex="1">
          <mxGeometry x="210" y="443" width="130" height="60" as="geometry" />
        </mxCell>
        <mxCell id="oelOoVk0ZH6apqkA6Dq0-14" value="" style="endArrow=none;html=1;rounded=0;dashed=1;dashPattern=1 2;exitX=1;exitY=0.25;exitDx=0;exitDy=0;entryX=0;entryY=0.5;entryDx=0;entryDy=0;edgeStyle=orthogonalEdgeStyle;" parent="1" source="aLUWIl0fzYMnbTUpbonb-1" target="oelOoVk0ZH6apqkA6Dq0-13" edge="1">
          <mxGeometry relative="1" as="geometry">
            <mxPoint x="150" y="560" as="sourcePoint" />
            <mxPoint x="310" y="560" as="targetPoint" />
          </mxGeometry>
        </mxCell>
        <mxCell id="oelOoVk0ZH6apqkA6Dq0-15" value="N" style="resizable=0;html=1;whiteSpace=wrap;align=right;verticalAlign=bottom;" parent="oelOoVk0ZH6apqkA6Dq0-14" connectable="0" vertex="1">
          <mxGeometry x="1" relative="1" as="geometry">
            <mxPoint x="60" y="-49" as="offset" />
          </mxGeometry>
        </mxCell>
        <mxCell id="oelOoVk0ZH6apqkA6Dq0-16" value="" style="endArrow=none;html=1;rounded=0;dashed=1;dashPattern=1 2;exitX=0.5;exitY=1;exitDx=0;exitDy=0;entryX=0.5;entryY=0;entryDx=0;entryDy=0;" parent="1" source="oelOoVk0ZH6apqkA6Dq0-2" target="oelOoVk0ZH6apqkA6Dq0-13" edge="1">
          <mxGeometry relative="1" as="geometry">
            <mxPoint x="160" y="450" as="sourcePoint" />
            <mxPoint x="320" y="450" as="targetPoint" />
          </mxGeometry>
        </mxCell>
        <mxCell id="oelOoVk0ZH6apqkA6Dq0-17" value="1" style="resizable=0;html=1;whiteSpace=wrap;align=right;verticalAlign=bottom;" parent="oelOoVk0ZH6apqkA6Dq0-16" connectable="0" vertex="1">
          <mxGeometry x="1" relative="1" as="geometry">
            <mxPoint x="-92" y="77" as="offset" />
          </mxGeometry>
        </mxCell>
        <mxCell id="VCckQpM2uN1_MtYX1kYH-1" value="Дата регистрации" style="ellipse;whiteSpace=wrap;html=1;" parent="1" vertex="1">
          <mxGeometry x="50" y="215" width="120" height="40" as="geometry" />
        </mxCell>
        <mxCell id="VCckQpM2uN1_MtYX1kYH-2" value="Дата рождения" style="ellipse;whiteSpace=wrap;html=1;" parent="1" vertex="1">
          <mxGeometry x="50" y="165" width="120" height="40" as="geometry" />
        </mxCell>
        <mxCell id="VCckQpM2uN1_MtYX1kYH-3" value="Статус" style="ellipse;whiteSpace=wrap;html=1;" parent="1" vertex="1">
          <mxGeometry x="50" y="115" width="120" height="40" as="geometry" />
        </mxCell>
        <mxCell id="VCckQpM2uN1_MtYX1kYH-7" value="Роль" style="ellipse;whiteSpace=wrap;html=1;" parent="1" vertex="1">
          <mxGeometry x="50" y="66" width="120" height="40" as="geometry" />
        </mxCell>
        <mxCell id="eLCOaKeWCMaCnl8OHLwY-3" value="Сообщение в чате" style="rounded=0;whiteSpace=wrap;html=1;" parent="1" vertex="1">
          <mxGeometry x="40" y="677.9300000000001" width="130" height="40" as="geometry" />
        </mxCell>
        <mxCell id="eLCOaKeWCMaCnl8OHLwY-8" style="edgeStyle=orthogonalEdgeStyle;rounded=0;orthogonalLoop=1;jettySize=auto;html=1;exitX=0;exitY=0;exitDx=0;exitDy=0;entryX=0;entryY=0.5;entryDx=0;entryDy=0;endArrow=none;endFill=0;" parent="1" source="eLCOaKeWCMaCnl8OHLwY-3" target="eLCOaKeWCMaCnl8OHLwY-6" edge="1">
          <mxGeometry relative="1" as="geometry">
            <Array as="points">
              <mxPoint x="40" y="799.1800000000001" />
            </Array>
          </mxGeometry>
        </mxCell>
        <mxCell id="eLCOaKeWCMaCnl8OHLwY-9" style="edgeStyle=orthogonalEdgeStyle;rounded=0;orthogonalLoop=1;jettySize=auto;html=1;exitX=0;exitY=0;exitDx=0;exitDy=0;entryX=0;entryY=0.5;entryDx=0;entryDy=0;endArrow=none;endFill=0;" parent="1" source="eLCOaKeWCMaCnl8OHLwY-3" target="eLCOaKeWCMaCnl8OHLwY-7" edge="1">
          <mxGeometry relative="1" as="geometry">
            <Array as="points">
              <mxPoint x="40" y="748.18" />
            </Array>
          </mxGeometry>
        </mxCell>
        <mxCell id="eLCOaKeWCMaCnl8OHLwY-6" value="Текст" style="ellipse;whiteSpace=wrap;html=1;" parent="1" vertex="1">
          <mxGeometry x="50" y="779.18" width="120" height="40" as="geometry" />
        </mxCell>
        <mxCell id="eLCOaKeWCMaCnl8OHLwY-7" value="Дата отправки" style="ellipse;whiteSpace=wrap;html=1;" parent="1" vertex="1">
          <mxGeometry x="50" y="727.9300000000001" width="120" height="40" as="geometry" />
        </mxCell>
      </root>
    </mxGraphModel>
  </diagram>
</mxfile>
